<?xml version="1.0" encoding="utf-8"?>
<!-- Generator: Adobe Illustrator 26.0.3, SVG Export Plug-In . SVG Version: 6.00 Build 0)  -->
<svg version="1.0" id="katman_1" xmlns="http://www.w3.org/2000/svg" xmlns:xlink="http://www.w3.org/1999/xlink" x="0px" y="0px"
	 viewBox="0 0 600 450" style="enable-background:new 0 0 600 450;" xml:space="preserve">
<style type="text/css">
	.st0{fill-rule:evenodd;clip-rule:evenodd;fill:#010202;}
</style>
<path class="st0" d="M433.5,186.9c-7.8,0.2-14.4-5.9-14.6-13.8c-0.2-7.8,5.9-14.4,13.8-14.6c0.3,0,0.5,0,0.8,0
	c7.8,0.2,14,6.8,13.8,14.6C447.1,180.6,441,186.7,433.5,186.9z M403.5,160.9c-7.8,0-14.2-6.3-14.2-14.2s6.3-14.2,14.2-14.2
	c0,0,0,0,0,0c7.8,0,14.2,6.4,14.2,14.2C417.7,154.6,411.3,160.9,403.5,160.9z M403.5,212.8c-7.8,0-14.2-6.3-14.2-14.1
	c0-3.8,1.5-7.4,4.2-10.1c5.5-5.5,14.5-5.6,20-0.1c2.7,2.7,4.2,6.3,4.2,10.1C417.7,206.5,411.3,212.8,403.5,212.8z M373.5,186.9
	c-7.8,0-14.2-6.3-14.2-14.2c0-7.8,6.3-14.2,14.2-14.2c0,0,0,0,0,0c7.8,0,14.2,6.4,14.2,14.2C387.7,180.5,381.3,186.9,373.5,186.9z
	 M350.7,255c-11.9,0-21.6-9.7-21.6-21.6c0-11.9,9.7-21.6,21.6-21.6s21.6,9.7,21.6,21.6C372.3,245.3,362.6,255,350.7,255L350.7,255z
	 M269.3,233.4v6.1c0,1.7-1.4,3-3.1,3c-4.9,0-9.8,0-14.8,0c-0.4,0-0.8,0.2-1.1,0.6c-0.1,0.2-0.2,0.5-0.2,0.7v14.8c0,1.7-1.3,3-3,3
	h-12.3c-1.7,0-3-1.4-3-3l0-14.8c0-0.2-0.1-0.5-0.2-0.7c-0.2-0.4-0.6-0.6-1-0.6c-4.9,0-9.9,0-14.8,0c-1.7,0-3-1.4-3-3l0,0v-12.3
	c0-1.7,1.4-3,3-3l14.8,0c0.2,0,0.4-0.1,0.6-0.2c0.4-0.2,0.6-0.6,0.6-1.1l0-14.8c0-1.7,1.4-3,3-3h12.3c1.7,0,3,1.4,3,3l0,14.8
	c0,0.3,0.1,0.7,0.4,0.9c0.2,0.2,0.6,0.4,0.9,0.4l14.8,0c1.7,0,3,1.3,3.1,3V233.4z M192.7,194.3c-11.9,0-21.6-9.7-21.6-21.6
	c0-11.9,9.7-21.6,21.6-21.6c0,0,0,0,0,0c11.9,0,21.6,9.7,21.6,21.6C214.2,184.6,204.6,194.3,192.7,194.3z M491.3,301.7
	c-2.1-24.8-7.1-49.3-11.2-73.8c-4-24.2-8.1-48.7-14.3-72.4c-2-10.3-6.4-19.9-12.9-28c-0.7-0.8-1.6-1.5-2.5-2c-2-3-3.9-10.7-5.8-13.7
	C434.8,97,413.3,93.1,397.3,91c-8.8-2.1-18.1-1.9-26.8,0.7c-5,2-9.9,8.8-14.8,11c-3.1-0.1-6.1-0.1-9.1-0.2
	c-25.7-0.5-51.5-0.6-77.2-0.3c-8.2,0.1-16.5,0.2-24.8,0.3c-4.8-2.1-9.6-8.9-14.5-10.9c-8.7-2.6-18-2.9-26.8-0.7
	c-16,2-37.5,5.9-47.2,20.6c-1.9,3.1-3.9,10.7-5.8,13.7c-0.9,0.5-1.8,1.2-2.5,2c-3.7,4-6.7,8.8-8.6,13.9
	c-7.2,23.4-12.6,47.4-16.1,71.7c-4.3,24.4-8.8,48.9-12,73.5c-2.8,21.3-6.1,47.9,11.1,64.4c7.3,7.4,17.8,10.9,28.1,9.2
	c11-3.2,20-11.1,24.6-21.5c5.9-10,10.8-20.4,15.9-30.8c4.8-9.8,10.1-23.1,22.2-25.3c7-0.8,14-1,21-0.6h141.1
	c10.2-1.8,20.5,2.3,26.6,10.6c6.5,10.9,12.4,22.2,17.5,33.9c9.7,18.6,23.9,42.4,48.7,31.6C490,348.4,493.1,323,491.3,301.7z"/>
</svg>
